<svg xmlns="http://www.w3.org/2000/svg" width="16" height="16" viewBox="0 0 16 16">
    <g fill="none" fill-rule="evenodd">
        <g fill="#191919">
            <g>
                <path d="M12.815 8.058c-.027-.059-.063-.113-.107-.16l-.344-.34L5.435.626C5.345.534 5.22.482 5.091.482c-.13 0-.253.052-.344.143L4.402.97c-.188.189-.188.494 0 .683l6.59 6.59-6.585 6.589c-.188.189-.188.494 0 .683l.345.344c.09.09.212.14.339.141.129 0 .253-.05.344-.14l6.929-6.93.344-.343c.045-.046.081-.1.107-.16.043-.12.043-.25 0-.369z" transform="translate(-88 -197) translate(88 197)"/>
            </g>
        </g>
    </g>
</svg>
