<svg xmlns="http://www.w3.org/2000/svg" width="16" height="16" viewBox="0 0 16 16">
    <g fill="none" fill-rule="evenodd">
        <g fill="#191919">
            <g>
                <path d="M11.71 14.795L4.915 8l6.79-6.795c.194-.195.194-.51 0-.705L11.35.145C11.257.053 11.131.001 11 0c-.133 0-.26.051-.355.145L3.5 7.29l-.355.355c-.047.048-.084.104-.11.165-.045.123-.045.257 0 .38.027.06.064.117.11.165l.355.35 7.145 7.15c.094.094.222.146.355.145.133 0 .26-.051.355-.145l.355-.355c.194-.195.194-.51 0-.705z" transform="translate(-120 -197) translate(120 197)"/>
            </g>
        </g>
    </g>
</svg>
